<?xml version="1.0" encoding="utf-8"?>
<!-- Generator: Adobe Illustrator 16.0.0, SVG Export Plug-In . SVG Version: 6.00 Build 0)  -->
<!DOCTYPE svg PUBLIC "-//W3C//DTD SVG 1.1//EN" "http://www.w3.org/Graphics/SVG/1.1/DTD/svg11.dtd">
<svg version="1.1" id="Layer_1" xmlns="http://www.w3.org/2000/svg" xmlns:xlink="http://www.w3.org/1999/xlink" x="0px" y="0px"
	 width="10px" height="10px" viewBox="0 0 10 10" enable-background="new 0 0 10 10" xml:space="preserve">
<path fill="#2D6CB3" d="M6.305,4.982l3.422-3.42c0.353-0.354,0.353-0.926,0-1.279c-0.354-0.354-0.927-0.354-1.279,0l-3.421,3.42
	l-3.42-3.42c-0.354-0.354-0.926-0.354-1.279,0c-0.354,0.353-0.354,0.926,0,1.279l3.42,3.42l-3.42,3.42
	c-0.354,0.354-0.354,0.927,0,1.279c0.177,0.178,0.408,0.266,0.64,0.266c0.232,0,0.463-0.088,0.64-0.266l3.42-3.421l3.421,3.421
	c0.177,0.178,0.407,0.266,0.64,0.266s0.463-0.088,0.641-0.266c0.353-0.354,0.353-0.926,0-1.279L6.305,4.982z"/>
</svg>
